<svg width="0" height="0" class="hidden">
  <symbol xmlns="http://www.w3.org/2000/svg" fill="none" stroke="currentColor" stroke-width="2" viewBox="0 0 24 24" id="chevron-up">
    <path stroke-linecap="round" stroke-linejoin="round" d="M5 15l7-7 7 7"></path>
  </symbol>
  <symbol xmlns="http://www.w3.org/2000/svg" fill="none" stroke="currentColor" stroke-width="2" viewBox="0 0 24 24" id="chevron-down">
    <path stroke-linecap="round" stroke-linejoin="round" d="M19 9l-7 7-7-7"></path>
  </symbol>
  <symbol xmlns="http://www.w3.org/2000/svg" viewBox="0 0 256 256" id="wind">
    <rect width="256" height="256" fill="none" />
    <path fill="none" stroke="#999" stroke-linecap="round" stroke-linejoin="round" stroke-width="8" d="M129.48449 192.32854A24.00285 24.00285 0 1 0 152 160H40M97.48449 63.67146A24.00285 24.00285 0 1 1 120 96H24M185.48449 95.67146A24.00285 24.00285 0 1 1 208 128H32" />
  </symbol>
  <svg width="21px" viewBox="0 0 32 32" version="1.1" xmlns="http://www.w3.org/2000/svg" id="humidity" fill="#999">
    <path d="M24.839 15.852c-0.021-0.083-0.063-0.158-0.118-0.22l-8.722-14.546-1.246 2.077h0.002l-7.525 12.548c-0.019 0.031-0.034 0.063-0.045 0.097-0.86 1.52-1.315 3.238-1.315 4.976 0 5.585 4.544 10.129 10.13 10.129s10.129-4.544 10.129-10.129c0-1.721-0.446-3.422-1.29-4.932zM16.001 29.847c-4.997 0-9.064-4.066-9.064-9.063 0-1.584 0.423-3.151 1.222-4.531 0.015-0.026 0.027-0.052 0.037-0.079l7.803-13.013 7.802 13.011c0.010 0.028 0.023 0.055 0.039 0.081 0.8 1.38 1.222 2.947 1.222 4.531 0 4.998-4.066 9.063-9.063 9.063z"></path>
  </svg>
  <symbol width="20px" viewBox="0 0 1024 1024" class="icon" xmlns="http://www.w3.org/2000/svg" id="sunset" fill="#999">
    <path d="M82.56 640a448 448 0 11858.88 0h-67.2a384 384 0 10-724.288 0H82.56zM32 704h960q32 0 32 32t-32 32H32q-32 0-32-32t32-32zM288 832h448q32 0 32 32t-32 32H288q-32 0-32-32t32-32z" />
  </symbol>
</svg>